<?xml version="1.0" encoding="utf-8"?>
<!-- Generator: Adobe Illustrator 17.1.0, SVG Export Plug-In . SVG Version: 6.00 Build 0)  -->
<!DOCTYPE svg PUBLIC "-//W3C//DTD SVG 1.1//EN" "http://www.w3.org/Graphics/SVG/1.1/DTD/svg11.dtd">
<svg version="1.1" id="Layer_1" xmlns="http://www.w3.org/2000/svg" xmlns:xlink="http://www.w3.org/1999/xlink" x="0px" y="0px"
	 viewBox="0 0 16 16" enable-background="new 0 0 16 16" xml:space="preserve">
<g id="communication_-_mic">
	<g>
		<path fill-rule="evenodd" clip-rule="evenodd" fill="#B3B4B6" d="M8,12c1.9,0,3.5-1.6,3.5-3.5v-5C11.5,1.6,9.9,0,8,0
			C6.1,0,4.5,1.6,4.5,3.5v5C4.5,10.4,6.1,12,8,12z M5.5,3.5C5.5,2.1,6.6,1,8,1c1.4,0,2.5,1.1,2.5,2.5v5C10.5,9.9,9.4,11,8,11
			c-1.4,0-2.5-1.1-2.5-2.5V3.5z M12.5,8v1c0,2.2-1.8,4-4,4h-1c-2.2,0-4-1.8-4-4V8h-1v1c0,2.8,2.2,5,5,5v1H7c-0.3,0-0.5,0.2-0.5,0.5
			C6.5,15.8,6.7,16,7,16h2c0.3,0,0.5-0.2,0.5-0.5C9.5,15.2,9.3,15,9,15H8.5v-1c2.8,0,5-2.2,5-5V8H12.5z"/>
	</g>
</g>
</svg>
